<svg width="18" height="16" fill="none" xmlns="http://www.w3.org/2000/svg"><path d="M17.896 3.052a.586.586 0 0 0-.449-.233L6.282 2.364c-.32-.013-.588.22-.602.522-.014.3.233.555.552.568l10.41.424-2.047 6.031H5.487L3.84 1.447a.554.554 0 0 0-.357-.41L.79.038a.59.59 0 0 0-.75.309c-.116.28.03.597.326.707l2.397.89 1.674 8.61a.57.57 0 0 0 .568.447h.278l-.634 1.664a.433.433 0 0 0 .06.416.49.49 0 0 0 .393.193h.445c-.276.29-.445.671-.445 1.09 0 .903.777 1.637 1.732 1.637.956 0 1.733-.734 1.733-1.636 0-.42-.17-.802-.445-1.091H11.9c-.276.29-.445.671-.445 1.09 0 .903.777 1.637 1.732 1.637.956 0 1.733-.734 1.733-1.636 0-.42-.17-.802-.445-1.091h.541a.468.468 0 0 0 .481-.455.468.468 0 0 0-.481-.454h-9.23L6.307 11h8.71a.575.575 0 0 0 .55-.379l2.406-7.091a.52.52 0 0 0-.076-.478ZM6.834 15.092c-.424 0-.77-.327-.77-.728 0-.401.346-.727.77-.727.425 0 .77.326.77.727 0 .401-.345.727-.77.727Zm6.353 0c-.425 0-.77-.327-.77-.728 0-.401.345-.727.77-.727.425 0 .77.326.77.727 0 .401-.345.727-.77.727Z" fill="#1B1A17"/></svg>