<svg width="23" height="24" fill="none" xmlns="http://www.w3.org/2000/svg"><path d="M6.657.673C2.986.673 0 3.64 0 7.283v9.558c0 3.644 2.986 6.608 6.657 6.608h9.686c3.671 0 6.657-2.964 6.657-6.608V7.283c0-3.644-2.986-6.61-6.657-6.61H6.657Zm0 1.958h9.686c2.613 0 4.686 2.058 4.686 4.652v9.558c0 2.593-2.073 4.65-4.686 4.65H6.657c-2.613 0-4.685-2.056-4.685-4.65V7.283c0-2.594 2.072-4.652 4.685-4.652ZM17.673 4.59c-.762 0-1.38.613-1.38 1.37 0 .756.618 1.368 1.38 1.368.762 0 1.379-.612 1.379-1.369 0-.756-.617-1.369-1.38-1.369ZM11.5 6.197c-3.251 0-5.907 2.637-5.907 5.864s2.656 5.864 5.907 5.864 5.909-2.637 5.909-5.864-2.658-5.864-5.909-5.864Zm0 1.958c2.185 0 3.937 1.737 3.937 3.906 0 2.17-1.752 3.906-3.937 3.906-2.185 0-3.935-1.737-3.935-3.906 0-2.17 1.75-3.906 3.935-3.906Z" fill="#5C5C50"/></svg>