<svg width="20" height="20" fill="none" xmlns="http://www.w3.org/2000/svg"><path d="M18.682 12.534c-.58 1.842-1.868 4.124-4.39 5.476a9.052 9.052 0 0 1-4.909 1.061L9.426.943 9.583.93c.485-.003 1.083.018 1.697.088.274.031.545.071.806.121a9.153 9.153 0 0 1 1.668.57 9.055 9.055 0 0 1 4.256 3.984 9.052 9.052 0 0 1 1.07 4.743 9.668 9.668 0 0 1-.398 2.097ZM8.425 1.074l-.042 17.873a9.097 9.097 0 0 1-2.69-16.97c.574-.308 1.553-.689 2.732-.902Z" stroke="url(#a)"/><defs><linearGradient id="a" x1=".756" y1="8.723" x2="20.965" y2="9.992" gradientUnits="userSpaceOnUse"><stop offset=".288" stop-color="#555248"/><stop offset=".78" stop-color="#1B1A17" stop-opacity="0"/></linearGradient></defs></svg>