<svg width="22" height="18" fill="none" xmlns="http://www.w3.org/2000/svg"><path d="M22 2.39a9.354 9.354 0 0 1-2.592.679A4.368 4.368 0 0 0 21.392.683a9.283 9.283 0 0 1-2.866 1.046A4.607 4.607 0 0 0 15.232.367c-2.493 0-4.513 1.931-4.513 4.313 0 .338.04.667.117.982-3.751-.18-7.077-1.897-9.303-4.505a4.145 4.145 0 0 0-.611 2.167c0 1.497.796 2.816 2.008 3.59a4.65 4.65 0 0 1-2.045-.54v.055c0 2.09 1.555 3.832 3.62 4.228a4.71 4.71 0 0 1-2.038.074c.575 1.713 2.241 2.96 4.216 2.995a9.331 9.331 0 0 1-5.606 1.846A9.67 9.67 0 0 1 0 15.512a13.215 13.215 0 0 0 6.92 1.937c8.3 0 12.84-6.57 12.84-12.27 0-.187-.005-.372-.013-.557a8.974 8.974 0 0 0 2.252-2.233" fill="#5C5C50"/></svg>